<svg version="1.1" id="Layer_1" xmlns="http://www.w3.org/2000/svg" xmlns:xlink="http://www.w3.org/1999/xlink" x="0px" y="0px"
	 width="100%" viewBox="0 0 512 512" enable-background="new 0 0 512 512" xml:space="preserve">
<path fill="#000000" opacity="1.000000" stroke="none" 
	d="
M187.478180,416.557281 
	C156.018417,393.353302 138.159164,362.164520 130.719574,324.579132 
	C128.288681,312.298096 127.574524,299.887177 127.603912,287.370148 
	C127.721687,237.207092 127.654457,187.043594 127.655060,136.880249 
	C127.655075,135.380356 127.696175,133.878555 127.635635,132.380981 
	C127.502922,129.097870 126.951469,125.679367 123.402946,124.636414 
	C119.524529,123.496483 115.769875,124.300095 113.176239,127.926109 
	C113.079285,128.061646 112.984627,128.198914 112.885254,128.332657 
	C106.625809,136.756500 106.595581,136.797150 98.272331,130.620102 
	C87.971680,122.975525 77.792114,115.165886 67.414856,107.627708 
	C64.716721,105.667763 64.363815,104.000076 65.705276,100.988838 
	C76.864983,75.938225 102.438316,64.045479 128.721786,66.134384 
	C143.903336,67.340942 157.767548,71.731743 169.050140,82.504036 
	C183.156937,95.972801 189.161911,112.893944 189.226074,131.955231 
	C189.410629,186.784317 189.138611,241.615219 189.410309,296.443604 
	C189.504395,315.430420 194.427917,333.380096 204.939331,349.381073 
	C222.414764,375.982880 248.804596,385.187866 276.740173,382.139526 
	C314.011322,378.072449 331.972473,353.679443 341.484467,320.456055 
	C344.681702,309.288727 344.943756,297.826294 344.942047,286.320862 
	C344.932068,219.158676 344.974945,151.996490 344.986725,84.834312 
	C344.988831,72.955864 345.195038,74.859741 354.982666,74.809944 
	C370.314606,74.731934 385.648407,74.875923 400.978699,74.697197 
	C404.924774,74.651184 406.527710,75.571167 406.518341,79.946869 
	C406.359802,153.941254 408.074524,227.989471 405.765320,301.913025 
	C404.040619,357.125671 379.771393,401.616364 328.720581,427.963165 
	C308.917786,438.183258 287.323120,440.795471 265.210907,440.572144 
	C236.976120,440.286957 210.926056,433.349670 187.478180,416.557281 
z"/>
</svg>